<svg width="61" height="61" viewBox="0 0 61 61" fill="none" xmlns="http://www.w3.org/2000/svg">
<g clip-path="url(#clip0_8105_5)">
<g clip-path="url(#clip1_8105_5)">
<path d="M52.0163 45.5728L45.1265 52.4626L8.53757 15.8697L15.4274 8.97983C25.5309 -1.12365 41.9169 -1.12365 52.0204 8.97983C62.1238 19.0873 62.1238 35.4693 52.0163 45.5728Z" fill="#96844A" stroke="#635831" stroke-width="2" stroke-miterlimit="10"/>
<path d="M45.5707 52.0164C55.675 41.912 55.675 25.5296 45.5707 15.4253C35.4663 5.3209 19.0839 5.3209 8.97953 15.4253C-1.12484 25.5296 -1.12484 41.912 8.97953 52.0164C19.0839 62.1208 35.4663 62.1207 45.5707 52.0164Z" fill="#72CC72" stroke="#38B038" stroke-width="2" stroke-miterlimit="10"/>
<path d="M27.2765 44.5311C33.2474 44.5311 38.0879 39.6907 38.0879 33.7197C38.0879 27.7487 33.2474 22.9083 27.2765 22.9083C21.3055 22.9083 16.4651 27.7487 16.4651 33.7197C16.4651 39.6907 21.3055 44.5311 27.2765 44.5311Z" fill="white"/>
<path d="M28.101 20.1814C28.101 20.668 27.2764 21.7017 27.2764 21.7017C27.2764 21.7017 26.4519 20.668 26.4519 20.1814C26.4519 19.6947 26.8219 19.3005 27.2764 19.3005C27.7309 19.3005 28.101 19.6947 28.101 20.1814Z" fill="#333333"/>
<path d="M26.4558 47.262C26.4558 46.7754 27.2803 45.7417 27.2803 45.7417C27.2803 45.7417 28.1048 46.7754 28.1048 47.262C28.1048 47.7487 27.7348 48.1429 27.2803 48.1429C26.8218 48.1429 26.4558 47.7487 26.4558 47.262Z" fill="#333333"/>
<path d="M21.2029 21.577C21.4443 21.9993 21.2512 23.3065 21.2512 23.3065C21.2512 23.3065 20.0204 22.8198 19.7791 22.4015C19.5338 21.9792 19.6584 21.4563 20.0526 21.2271C20.4428 21.0018 20.9576 21.1587 21.2029 21.577Z" fill="#333333"/>
<path d="M33.3537 45.8624C33.1124 45.4401 33.3055 44.1329 33.3055 44.1329C33.3055 44.1329 34.5362 44.6196 34.7776 45.0379C35.0189 45.4602 34.8982 45.9871 34.5041 46.2124C34.1099 46.4416 33.5951 46.2847 33.3537 45.8624Z" fill="#333333"/>
<path d="M15.9581 26.2225C16.3804 26.4639 16.8631 27.6946 16.8631 27.6946C16.8631 27.6946 15.5559 27.8917 15.1336 27.6463C14.7113 27.405 14.5544 26.8862 14.7837 26.492C15.0089 26.0978 15.5358 25.9772 15.9581 26.2225Z" fill="#333333"/>
<path d="M38.5985 41.2209C38.1762 40.9796 37.6935 39.7488 37.6935 39.7488C37.6935 39.7488 39.0007 39.5517 39.423 39.7971C39.8454 40.0384 40.0022 40.5573 39.773 40.9514C39.5437 41.3416 39.0168 41.4663 38.5985 41.2209Z" fill="#333333"/>
<path d="M13.738 32.8992C14.2247 32.8992 15.2583 33.7237 15.2583 33.7237C15.2583 33.7237 14.2247 34.5482 13.738 34.5482C13.2513 34.5482 12.8571 34.1782 12.8571 33.7237C12.8571 33.2652 13.2513 32.8992 13.738 32.8992Z" fill="#333333"/>
<path d="M40.8147 34.5442C40.328 34.5442 39.2943 33.7197 39.2943 33.7197C39.2943 33.7197 40.328 32.8951 40.8147 32.8951C41.3014 32.8951 41.6955 33.2652 41.6955 33.7197C41.6955 34.1742 41.3014 34.5442 40.8147 34.5442Z" fill="#333333"/>
<path d="M15.1336 39.7972C15.5559 39.5558 16.8631 39.7489 16.8631 39.7489C16.8631 39.7489 16.3765 40.9797 15.9582 41.221C15.5358 41.4663 15.0089 41.3416 14.7837 40.9475C14.5544 40.5573 14.7153 40.0385 15.1336 39.7972Z" fill="#333333"/>
<path d="M39.4189 27.6464C38.9966 27.8877 37.6894 27.6946 37.6894 27.6946C37.6894 27.6946 38.1761 26.4639 38.5944 26.2225C39.0167 25.9812 39.5396 26.1019 39.7688 26.496C39.9981 26.8862 39.8412 27.405 39.4189 27.6464Z" fill="#333333"/>
<path d="M19.775 45.0419C20.0163 44.6196 21.2471 44.137 21.2471 44.137C21.2471 44.137 21.4442 45.4441 21.1988 45.8665C20.9575 46.2888 20.4386 46.4456 20.0445 46.2164C19.6543 45.9871 19.5337 45.4602 19.775 45.0419Z" fill="#333333"/>
<path d="M34.7775 22.4015C34.5362 22.8238 33.3055 23.3065 33.3055 23.3065C33.3055 23.3065 33.1084 21.9993 33.3537 21.577C33.5951 21.1547 34.1139 20.9978 34.5081 21.2271C34.8982 21.4563 35.0189 21.9792 34.7775 22.4015Z" fill="#333333"/>
<path d="M15.6607 20.9497C16.0026 21.2916 16.1514 22.5947 16.1514 22.5947C16.1514 22.5947 14.8483 22.4459 14.5064 22.104C14.1645 21.7621 14.1484 21.2272 14.4662 20.9095C14.7839 20.5917 15.3188 20.6078 15.6607 20.9497Z" fill="#333333"/>
<path d="M38.8922 46.4939C38.5504 46.152 38.4016 44.8489 38.4016 44.8489C38.4016 44.8489 39.7047 44.9977 40.0466 45.3396C40.3885 45.6814 40.4045 46.2164 40.0868 46.5341C39.7691 46.8519 39.2341 46.8358 38.8922 46.4939Z" fill="#333333"/>
<path d="M10.8946 28.4508C11.3612 28.5755 12.1415 29.6293 12.1415 29.6293C12.1415 29.6293 10.9389 30.1521 10.4723 30.0274C10.0058 29.9028 9.72421 29.4483 9.84085 29.0139C9.95347 28.5755 10.4281 28.3261 10.8946 28.4508Z" fill="#333333"/>
<path d="M43.6625 38.9927C43.1959 38.868 42.4156 37.8143 42.4156 37.8143C42.4156 37.8143 43.6182 37.2914 44.0848 37.4161C44.5513 37.5408 44.8329 37.9952 44.7162 38.4296C44.5996 38.868 44.129 39.1174 43.6625 38.9927Z" fill="#333333"/>
<path d="M10.4682 37.4161C10.9348 37.2914 12.1374 37.8143 12.1374 37.8143C12.1374 37.8143 11.3571 38.868 10.8905 38.9927C10.424 39.1174 9.95338 38.864 9.83674 38.4296C9.7201 37.9952 10.0057 37.5408 10.4682 37.4161Z" fill="#333333"/>
<path d="M44.0848 30.0275C43.6182 30.1522 42.4156 29.6293 42.4156 29.6293C42.4156 29.6293 43.1959 28.5755 43.6625 28.4509C44.129 28.3262 44.5996 28.5796 44.7162 29.0139C44.8329 29.4483 44.5513 29.9028 44.0848 30.0275Z" fill="#333333"/>
<path d="M14.5064 45.3396C14.8483 44.9977 16.1514 44.8489 16.1514 44.8489C16.1514 44.8489 16.0026 46.152 15.6607 46.4939C15.3188 46.8358 14.7839 46.8519 14.4662 46.5341C14.1484 46.2164 14.1645 45.6774 14.5064 45.3396Z" fill="#333333"/>
<path d="M40.0467 22.104C39.7089 22.4459 38.4057 22.5947 38.4057 22.5947C38.4057 22.5947 38.5545 21.2916 38.8964 20.9497C39.2383 20.6078 39.7732 20.5917 40.091 20.9095C40.4087 21.2272 40.3886 21.7621 40.0467 22.104Z" fill="#333333"/>
<path d="M22.0036 50.1057C22.1283 49.6392 23.1821 48.8589 23.1821 48.8589C23.1821 48.8589 23.7049 50.0615 23.5802 50.5281C23.4556 50.9946 23.0011 51.2762 22.5667 51.1595C22.1323 51.0469 21.8789 50.5723 22.0036 50.1057Z" fill="#333333"/>
<path d="M32.5496 17.3377C32.4249 17.8043 31.3711 18.5845 31.3711 18.5845C31.3711 18.5845 30.8483 17.3819 30.973 16.9154C31.0976 16.4488 31.5521 16.1673 31.9865 16.2839C32.4209 16.3965 32.6743 16.8711 32.5496 17.3377Z" fill="#333333"/>
<path d="M30.973 50.528C30.8483 50.0615 31.3711 48.8589 31.3711 48.8589C31.3711 48.8589 32.4249 49.6392 32.5496 50.1057C32.6743 50.5723 32.4209 51.0429 31.9865 51.1595C31.5521 51.2802 31.0976 50.9946 30.973 50.528Z" fill="#333333"/>
<path d="M23.5841 16.9155C23.7088 17.382 23.1859 18.5847 23.1859 18.5847C23.1859 18.5847 22.1321 17.8044 22.0074 17.3378C21.8827 16.8712 22.1361 16.4007 22.5705 16.284C23.0049 16.1634 23.4594 16.4489 23.5841 16.9155Z" fill="#333333"/>
</g>
</g>
<defs>
<clipPath id="clip0_8105_5">
<rect width="61" height="61" fill="white"/>
</clipPath>
<clipPath id="clip1_8105_5">
<rect width="67" height="77" fill="white" transform="translate(-3 -8)"/>
</clipPath>
</defs>
</svg>
