<svg width="63" height="64" viewBox="0 0 63 64" fill="none" xmlns="http://www.w3.org/2000/svg">
<g clip-path="url(#clip0_2_497)">
<path d="M31.4977 6.58545C41.4719 6.58545 50.812 9.35252 58.8425 14.1541L61.3703 9.72115C52.6052 4.47632 42.3982 1.46661 31.4977 1.46661C20.6017 1.46661 10.3948 4.47632 1.62506 9.72581L4.15285 14.1587C12.1834 9.35252 21.5234 6.58545 31.4977 6.58545Z" fill="#72CC72" stroke="#38B038" stroke-width="2" stroke-miterlimit="10"/>
<path d="M4.15286 14.1588L31.4977 62.0761L58.8471 14.1588C50.8166 9.35256 41.4765 6.59015 31.5023 6.59015C21.5234 6.58549 12.1834 9.35256 4.15286 14.1588Z" fill="#FA5254" stroke="#DB2C2E" stroke-width="2" stroke-miterlimit="10"/>
<path d="M17.9553 21.1253C17.9553 20.4534 19.0686 19.0209 19.0686 19.0209C19.0686 19.0209 20.1819 20.4534 20.1819 21.1253C20.1819 21.7973 19.6846 22.3432 19.0686 22.3432C18.4526 22.3432 17.9553 21.7973 17.9553 21.1253Z" fill="#333333"/>
<path d="M30.3889 21.1253C30.3889 20.4534 31.5022 19.0209 31.5022 19.0209C31.5022 19.0209 32.6155 20.4534 32.6155 21.1253C32.6155 21.7973 32.1182 22.3432 31.5022 22.3432C30.8862 22.3432 30.3889 21.7973 30.3889 21.1253Z" fill="#333333"/>
<path d="M42.8179 21.1253C42.8179 20.4534 43.9312 19.0209 43.9312 19.0209C43.9312 19.0209 45.0445 20.4534 45.0445 21.1253C45.0445 21.7973 44.5472 22.3432 43.9312 22.3432C43.3152 22.3432 42.8179 21.7973 42.8179 21.1253Z" fill="#333333"/>
<path d="M30.3889 44.2044C30.3889 43.5325 31.5022 42.1 31.5022 42.1C31.5022 42.1 32.6155 43.5325 32.6155 44.2044C32.6155 44.8764 32.1182 45.4223 31.5022 45.4223C30.8862 45.4223 30.3889 44.8764 30.3889 44.2044Z" fill="#333333"/>
<path d="M24.1698 32.6649C24.1698 31.993 25.2831 30.5604 25.2831 30.5604C25.2831 30.5604 26.3964 31.993 26.3964 32.6649C26.3964 33.3368 25.8991 33.8828 25.2831 33.8828C24.6717 33.8828 24.1698 33.3368 24.1698 32.6649Z" fill="#333333"/>
<path d="M36.6034 32.6649C36.6034 31.993 37.7167 30.5604 37.7167 30.5604C37.7167 30.5604 38.83 31.993 38.83 32.6649C38.83 33.3368 38.3327 33.8828 37.7167 33.8828C37.1007 33.8828 36.6034 33.3368 36.6034 32.6649Z" fill="#333333"/>
</g>
<defs>
<clipPath id="clip0_2_497">
<rect width="63" height="64" fill="white"/>
</clipPath>
</defs>
</svg>
