<svg width="108" height="108" viewBox="0 0 108 108" fill="none" xmlns="http://www.w3.org/2000/svg">
<circle cx="54" cy="54" r="54" fill="white"/>
<g clip-path="url(#clip0_4579_388)">
<path d="M54.4977 32.4954C64.4719 32.4954 73.812 35.2178 81.8425 39.9419L84.3703 35.5805C75.6052 30.4203 65.3982 27.4591 54.4977 27.4591C43.6017 27.4591 33.3948 30.4203 24.6251 35.5851L27.1528 39.9465C35.1834 35.2178 44.5234 32.4954 54.4977 32.4954Z" fill="#72CC72" stroke="#38B038" stroke-width="2" stroke-miterlimit="10"/>
<path d="M27.1528 39.9465L54.4977 87.091L81.847 39.9465C73.8165 35.2179 64.4765 32.5 54.5022 32.5C44.5234 32.4954 35.1834 35.2179 27.1528 39.9465Z" fill="#FA5254" stroke="#DB2C2E" stroke-width="2" stroke-miterlimit="10"/>
<path d="M40.9553 46.8007C40.9553 46.1396 42.0686 44.7302 42.0686 44.7302C42.0686 44.7302 43.1819 46.1396 43.1819 46.8007C43.1819 47.4618 42.6846 47.999 42.0686 47.999C41.4526 47.999 40.9553 47.4618 40.9553 46.8007Z" fill="#333333"/>
<path d="M53.3889 46.8007C53.3889 46.1396 54.5022 44.7302 54.5022 44.7302C54.5022 44.7302 55.6155 46.1396 55.6155 46.8007C55.6155 47.4618 55.1182 47.999 54.5022 47.999C53.8862 47.999 53.3889 47.4618 53.3889 46.8007Z" fill="#333333"/>
<path d="M65.8179 46.8007C65.8179 46.1396 66.9312 44.7302 66.9312 44.7302C66.9312 44.7302 68.0445 46.1396 68.0445 46.8007C68.0445 47.4618 67.5472 47.999 66.9312 47.999C66.3152 47.999 65.8179 47.4618 65.8179 46.8007Z" fill="#333333"/>
<path d="M53.3889 69.5075C53.3889 68.8464 54.5022 67.437 54.5022 67.437C54.5022 67.437 55.6155 68.8464 55.6155 69.5075C55.6155 70.1686 55.1182 70.7058 54.5022 70.7058C53.8862 70.7058 53.3889 70.1686 53.3889 69.5075Z" fill="#333333"/>
<path d="M47.1698 58.1543C47.1698 57.4932 48.2831 56.0837 48.2831 56.0837C48.2831 56.0837 49.3964 57.4932 49.3964 58.1543C49.3964 58.8154 48.8991 59.3525 48.2831 59.3525C47.6717 59.3525 47.1698 58.8154 47.1698 58.1543Z" fill="#333333"/>
<path d="M59.6034 58.1543C59.6034 57.4932 60.7167 56.0837 60.7167 56.0837C60.7167 56.0837 61.83 57.4932 61.83 58.1543C61.83 58.8154 61.3327 59.3525 60.7167 59.3525C60.1007 59.3525 59.6034 58.8154 59.6034 58.1543Z" fill="#333333"/>
</g>
<defs>
<clipPath id="clip0_4579_388">
<rect width="61" height="61" fill="white" transform="translate(24 27)"/>
</clipPath>
</defs>
</svg>
