<svg width="108" height="108" viewBox="0 0 108 108" fill="none" xmlns="http://www.w3.org/2000/svg">
<circle cx="54" cy="54" r="54" fill="white"/>
<g clip-path="url(#clip0_4579_354)">
<path d="M76.0164 69.5728L69.1265 76.4626L32.5376 39.8697L39.4274 32.9798C49.5309 22.8764 65.9169 22.8764 76.0204 32.9798C86.1239 43.0873 86.1239 59.4693 76.0164 69.5728Z" fill="#96844A" stroke="#635831" stroke-width="2" stroke-miterlimit="10"/>
<path d="M69.5707 76.0164C79.675 65.912 79.675 49.5296 69.5707 39.4253C59.4663 29.3209 43.0839 29.3209 32.9795 39.4253C22.8752 49.5296 22.8752 65.912 32.9795 76.0164C43.0839 86.1208 59.4663 86.1207 69.5707 76.0164Z" fill="#72CC72" stroke="#38B038" stroke-width="2" stroke-miterlimit="10"/>
<path d="M51.2765 68.5311C57.2474 68.5311 62.0878 63.6907 62.0878 57.7197C62.0878 51.7487 57.2474 46.9083 51.2765 46.9083C45.3055 46.9083 40.4651 51.7487 40.4651 57.7197C40.4651 63.6907 45.3055 68.5311 51.2765 68.5311Z" fill="white"/>
<path d="M52.101 44.1814C52.101 44.668 51.2764 45.7017 51.2764 45.7017C51.2764 45.7017 50.4519 44.668 50.4519 44.1814C50.4519 43.6947 50.8219 43.3005 51.2764 43.3005C51.7309 43.3005 52.101 43.6947 52.101 44.1814Z" fill="#333333"/>
<path d="M50.4558 71.262C50.4558 70.7754 51.2803 69.7417 51.2803 69.7417C51.2803 69.7417 52.1049 70.7754 52.1049 71.262C52.1049 71.7487 51.7348 72.1429 51.2803 72.1429C50.8218 72.1429 50.4558 71.7487 50.4558 71.262Z" fill="#333333"/>
<path d="M45.203 45.577C45.4443 45.9993 45.2512 47.3065 45.2512 47.3065C45.2512 47.3065 44.0205 46.8198 43.7791 46.4015C43.5338 45.9792 43.6585 45.4563 44.0526 45.2271C44.4428 45.0018 44.9576 45.1587 45.203 45.577Z" fill="#333333"/>
<path d="M57.3538 69.8624C57.1125 69.4401 57.3055 68.1329 57.3055 68.1329C57.3055 68.1329 58.5363 68.6196 58.7776 69.0379C59.0189 69.4602 58.8983 69.9871 58.5041 70.2124C58.11 70.4416 57.5951 70.2847 57.3538 69.8624Z" fill="#333333"/>
<path d="M39.9582 50.2225C40.3805 50.4639 40.8631 51.6946 40.8631 51.6946C40.8631 51.6946 39.556 51.8917 39.1336 51.6463C38.7113 51.405 38.5545 50.8862 38.7837 50.492C39.009 50.0978 39.5358 49.9772 39.9582 50.2225Z" fill="#333333"/>
<path d="M62.5986 65.2209C62.1763 64.9796 61.6936 63.7488 61.6936 63.7488C61.6936 63.7488 63.0008 63.5517 63.4231 63.7971C63.8454 64.0384 64.0023 64.5573 63.773 64.9514C63.5438 65.3416 63.0169 65.4663 62.5986 65.2209Z" fill="#333333"/>
<path d="M37.738 56.8992C38.2247 56.8992 39.2584 57.7237 39.2584 57.7237C39.2584 57.7237 38.2247 58.5482 37.738 58.5482C37.2513 58.5482 36.8572 58.1782 36.8572 57.7237C36.8572 57.2652 37.2513 56.8992 37.738 56.8992Z" fill="#333333"/>
<path d="M64.8147 58.5442C64.328 58.5442 63.2943 57.7197 63.2943 57.7197C63.2943 57.7197 64.328 56.8951 64.8147 56.8951C65.3013 56.8951 65.6955 57.2652 65.6955 57.7197C65.6955 58.1742 65.3013 58.5442 64.8147 58.5442Z" fill="#333333"/>
<path d="M39.1337 63.7972C39.556 63.5558 40.8632 63.7489 40.8632 63.7489C40.8632 63.7489 40.3765 64.9797 39.9582 65.221C39.5359 65.4663 39.009 65.3416 38.7838 64.9475C38.5545 64.5573 38.7154 64.0385 39.1337 63.7972Z" fill="#333333"/>
<path d="M63.4189 51.6464C62.9966 51.8877 61.6895 51.6946 61.6895 51.6946C61.6895 51.6946 62.1761 50.4639 62.5944 50.2225C63.0167 49.9812 63.5396 50.1019 63.7689 50.496C63.9981 50.8862 63.8413 51.405 63.4189 51.6464Z" fill="#333333"/>
<path d="M43.7751 69.0419C44.0164 68.6196 45.2472 68.137 45.2472 68.137C45.2472 68.137 45.4443 69.4441 45.1989 69.8665C44.9576 70.2888 44.4387 70.4456 44.0446 70.2164C43.6544 69.9871 43.5338 69.4602 43.7751 69.0419Z" fill="#333333"/>
<path d="M58.7775 46.4015C58.5362 46.8238 57.3055 47.3065 57.3055 47.3065C57.3055 47.3065 57.1084 45.9993 57.3537 45.577C57.5951 45.1547 58.1139 44.9978 58.5081 45.2271C58.8982 45.4563 59.0189 45.9792 58.7775 46.4015Z" fill="#333333"/>
<path d="M39.6608 44.9497C40.0027 45.2916 40.1515 46.5947 40.1515 46.5947C40.1515 46.5947 38.8483 46.4459 38.5064 46.104C38.1646 45.7621 38.1485 45.2272 38.4662 44.9095C38.784 44.5917 39.3189 44.6078 39.6608 44.9497Z" fill="#333333"/>
<path d="M62.8923 70.4939C62.5504 70.152 62.4016 68.8489 62.4016 68.8489C62.4016 68.8489 63.7048 68.9977 64.0466 69.3396C64.3885 69.6814 64.4046 70.2164 64.0869 70.5341C63.7691 70.8519 63.2342 70.8358 62.8923 70.4939Z" fill="#333333"/>
<path d="M34.8947 52.4508C35.3613 52.5755 36.1415 53.6293 36.1415 53.6293C36.1415 53.6293 34.9389 54.1521 34.4724 54.0274C34.0058 53.9028 33.7243 53.4483 33.8409 53.0139C33.9535 52.5755 34.4281 52.3261 34.8947 52.4508Z" fill="#333333"/>
<path d="M67.6625 62.9927C67.1959 62.868 66.4156 61.8143 66.4156 61.8143C66.4156 61.8143 67.6183 61.2914 68.0848 61.4161C68.5514 61.5408 68.8329 61.9952 68.7163 62.4296C68.5996 62.868 68.1291 63.1174 67.6625 62.9927Z" fill="#333333"/>
<path d="M34.4682 61.4161C34.9348 61.2914 36.1374 61.8143 36.1374 61.8143C36.1374 61.8143 35.3571 62.868 34.8906 62.9927C34.424 63.1174 33.9534 62.864 33.8368 62.4296C33.7201 61.9952 34.0057 61.5408 34.4682 61.4161Z" fill="#333333"/>
<path d="M68.0848 54.0275C67.6183 54.1522 66.4156 53.6293 66.4156 53.6293C66.4156 53.6293 67.1959 52.5755 67.6625 52.4509C68.1291 52.3262 68.5996 52.5796 68.7163 53.0139C68.8329 53.4483 68.5514 53.9028 68.0848 54.0275Z" fill="#333333"/>
<path d="M38.5064 69.3396C38.8483 68.9977 40.1515 68.8489 40.1515 68.8489C40.1515 68.8489 40.0027 70.152 39.6608 70.4939C39.3189 70.8358 38.784 70.8519 38.4662 70.5341C38.1485 70.2164 38.1646 69.6774 38.5064 69.3396Z" fill="#333333"/>
<path d="M64.0468 46.104C63.7089 46.4459 62.4058 46.5947 62.4058 46.5947C62.4058 46.5947 62.5546 45.2916 62.8965 44.9497C63.2383 44.6078 63.7733 44.5917 64.091 44.9095C64.4088 45.2272 64.3887 45.7621 64.0468 46.104Z" fill="#333333"/>
<path d="M46.0036 74.1057C46.1283 73.6392 47.1821 72.8589 47.1821 72.8589C47.1821 72.8589 47.7049 74.0615 47.5802 74.5281C47.4556 74.9946 47.0011 75.2762 46.5667 75.1595C46.1323 75.0469 45.8789 74.5723 46.0036 74.1057Z" fill="#333333"/>
<path d="M56.5496 41.3377C56.4249 41.8043 55.3711 42.5845 55.3711 42.5845C55.3711 42.5845 54.8483 41.3819 54.973 40.9154C55.0976 40.4488 55.5521 40.1673 55.9865 40.2839C56.4209 40.3965 56.6743 40.8711 56.5496 41.3377Z" fill="#333333"/>
<path d="M54.973 74.528C54.8483 74.0615 55.3711 72.8589 55.3711 72.8589C55.3711 72.8589 56.4249 73.6392 56.5496 74.1057C56.6743 74.5723 56.4209 75.0429 55.9865 75.1595C55.5521 75.2802 55.0976 74.9946 54.973 74.528Z" fill="#333333"/>
<path d="M47.5842 40.9155C47.7088 41.382 47.186 42.5847 47.186 42.5847C47.186 42.5847 46.1322 41.8044 46.0075 41.3378C45.8828 40.8712 46.1362 40.4007 46.5706 40.284C47.005 40.1634 47.4595 40.4489 47.5842 40.9155Z" fill="#333333"/>
</g>
<defs>
<clipPath id="clip0_4579_354">
<rect width="67" height="77" fill="white" transform="translate(21 16)"/>
</clipPath>
</defs>
</svg>
