<svg width="108" height="108" viewBox="0 0 108 108" fill="none" xmlns="http://www.w3.org/2000/svg">
<circle cx="54" cy="54" r="54" fill="white"/>
<g clip-path="url(#clip0_4579_444)">
<path d="M58.4679 42.0613C57.2584 41.5036 55.9185 41.1862 54.5021 41.1862C53.0858 41.1862 51.7459 41.5036 50.5364 42.0613C42.1328 40.6239 31.3236 44.6597 31.3236 60.6534C31.3236 76.2391 41.9394 84.6735 47.8296 84.6735C48.8952 84.6735 49.9204 84.4604 50.8376 84.1611C53.2297 83.3812 55.7791 83.3812 58.1666 84.1611C59.0794 84.4604 60.109 84.6735 61.1747 84.6735C67.0603 84.6735 77.6806 76.2391 77.6806 60.6534C77.6761 44.6597 66.867 40.6239 58.4679 42.0613Z" fill="#FA5254" stroke="#DB2C2E" stroke-width="1.4389" stroke-miterlimit="10"/>
<path d="M61.9345 46.5325C60.3967 43.857 57.5506 42.1974 54.4976 42.1974C51.4491 42.1974 48.5984 43.857 47.0607 46.5325L45.3251 45.5213C47.218 42.2246 50.7341 40.1794 54.4931 40.1794C58.2565 40.1794 61.7681 42.2246 63.6611 45.5213L61.9345 46.5325Z" fill="#DB2C2E"/>
<path d="M55.5002 41.3493H53.4949C53.4949 35.2865 58.3824 30.3573 64.3939 30.3573V32.3798C59.493 32.3752 55.5002 36.402 55.5002 41.3493Z" fill="#38B038"/>
<path d="M42.0385 37.6355C36.9531 32.5068 35.8425 22.3673 35.8425 22.3673C35.8425 22.3673 45.8963 23.4919 50.9816 28.6206C56.067 33.7493 54.2594 40.9413 54.2594 40.9413C54.2594 40.9413 47.1238 42.7642 42.0385 37.6355Z" fill="#72CC72" stroke="#38B038" stroke-width="1.4389" stroke-miterlimit="10"/>
<path d="M45.4721 30.649L44.0541 32.0791L53.5476 41.6536L54.9656 40.2235L45.4721 30.649Z" fill="#38B038"/>
</g>
<defs>
<clipPath id="clip0_4579_444">
<rect width="47" height="63" fill="white" transform="translate(31 22)"/>
</clipPath>
</defs>
</svg>
