<svg width="108" height="108" viewBox="0 0 108 108" fill="none" xmlns="http://www.w3.org/2000/svg">
<circle cx="54" cy="54" r="54" fill="white"/>
<g clip-path="url(#clip0_4579_242)">
<path d="M54.5 85C71.897 85 86 70.897 86 53.5C86 36.103 71.897 22 54.5 22C37.103 22 23 36.103 23 53.5C23 70.897 37.103 85 54.5 85Z" fill="#C71C1C"/>
<path d="M53.6519 85.0001C70.5805 85.0001 84.3038 71.2668 84.3038 54.3258C84.3038 37.3849 70.5805 23.6515 53.6519 23.6515C36.7233 23.6515 23 37.3849 23 54.3258C23 71.2668 36.7233 85.0001 53.6519 85.0001Z" fill="#FA4141"/>
<path d="M78.2789 63.6321C83.4152 50.0216 76.5537 34.8213 62.9532 29.6812C49.3527 24.5411 34.1635 31.4076 29.0271 45.0181C23.8908 58.6285 30.7523 73.8289 44.3528 78.969C57.9533 84.1091 73.1425 77.2425 78.2789 63.6321Z" fill="#FF7A7A"/>
<path d="M77.4905 61.5486C81.4764 48.3749 74.0361 34.4618 60.872 30.473C47.7079 26.4841 33.805 33.9299 29.8191 47.1036C25.8331 60.2774 33.2735 74.1904 46.4376 78.1793C59.6017 82.1681 73.5045 74.7223 77.4905 61.5486Z" fill="#CF0C0C"/>
<path d="M61.9948 43.0893C61.9948 46.6641 59.4781 52.513 53.6565 52.513C47.835 52.513 45.959 46.6641 45.959 43.0893C45.959 39.5144 49.5496 36.6177 53.9746 36.6177C58.3995 36.6177 61.9948 39.5144 61.9948 43.0893Z" fill="#FA4141"/>
<path d="M61.0358 67.2967C57.5835 66.3741 52.5916 62.4349 54.0942 56.8028C55.5968 51.1753 61.7272 50.8709 65.175 51.7934C68.6274 52.716 70.4941 56.932 69.351 61.2171C68.2079 65.4977 64.4882 68.2192 61.0358 67.2967Z" fill="#FA4141"/>
<path d="M45.7052 66.84C49.1576 65.9174 54.1495 61.9782 52.6468 56.3461C51.1442 50.7187 45.0138 50.4142 41.5661 51.3368C38.1137 52.2593 36.2469 56.4753 37.39 60.7605C38.5331 65.041 42.2575 67.7625 45.7052 66.84Z" fill="#FA4141"/>
<path d="M72.1304 36.6222L54.4998 53.5L74.9374 40.4968L72.1304 36.6222Z" fill="#FF7A7A"/>
<path d="M53.4166 56.4706L56.5417 79.7369L49.2775 79.8338L53.4166 56.4706Z" fill="#FF7A7A"/>
<path d="M51.8079 53.1402L30.1073 44.759L33.3015 38.947L51.8079 53.1402Z" fill="#FF7A7A"/>
<path d="M53.3014 58.3064C55.5823 58.3064 57.4314 56.584 57.4314 54.4594C57.4314 52.3348 55.5823 50.6124 53.3014 50.6124C51.0205 50.6124 49.1715 52.3348 49.1715 54.4594C49.1715 56.584 51.0205 58.3064 53.3014 58.3064Z" fill="#FF7A7A"/>
<path d="M52.8451 34.1729C53.0018 34.957 52.7114 36.4792 52.1399 36.5945C51.5683 36.7099 50.9368 35.3768 50.7801 34.5926C50.6234 33.8085 50.9553 33.0797 51.5268 32.9597C52.0984 32.8444 52.6884 33.3887 52.8451 34.1729Z" fill="#FF7A7A"/>
<path d="M57.6342 34.7126C57.5328 35.506 56.7677 36.8529 56.1869 36.7791C55.6107 36.7053 55.4402 35.2385 55.5416 34.4451C55.643 33.6517 56.1961 33.0659 56.7723 33.1397C57.353 33.2135 57.7402 33.9192 57.6342 34.7126Z" fill="#FF7A7A"/>
<path d="M61.5613 36.5531C61.1742 37.2543 59.9619 38.2229 59.4549 37.9416C58.9479 37.6602 59.3304 36.2349 59.7176 35.5384C60.1048 34.8372 60.8331 34.5005 61.3401 34.7773C61.8517 35.054 61.9531 35.852 61.5613 36.5531Z" fill="#FF7A7A"/>
<path d="M49.0701 35.5199C49.2268 36.304 48.9364 37.8262 48.3649 37.9415C47.7933 38.0569 47.1618 36.7238 47.0051 35.9396C46.8484 35.1555 47.1803 34.4267 47.7518 34.3068C48.3234 34.196 48.9134 34.7357 49.0701 35.5199Z" fill="#FF7A7A"/>
<path d="M72.0705 61.2862C71.273 61.2032 69.9133 60.4652 69.9732 59.884C70.0332 59.3028 71.4943 59.0998 72.2871 59.1828C73.0845 59.2659 73.6791 59.8056 73.6192 60.3868C73.5593 60.968 72.8633 61.3693 72.0705 61.2862Z" fill="#FF7A7A"/>
<path d="M70.1162 65.696C69.3879 65.3593 68.337 64.2246 68.5767 63.6941C68.821 63.1636 70.2683 63.445 70.992 63.7817C71.7202 64.1185 72.112 64.8196 71.8677 65.3454C71.628 65.8759 70.8445 66.0327 70.1162 65.696Z" fill="#FF7A7A"/>
<path d="M67.1894 68.8926C66.6362 68.3114 66.0785 66.8676 66.498 66.4663C66.9174 66.065 68.1619 66.8584 68.7104 67.4396C69.2635 68.0208 69.365 68.8142 68.9455 69.2201C68.5261 69.6214 67.7379 69.4738 67.1894 68.8926Z" fill="#FF7A7A"/>
<path d="M71.914 57.2778C71.1166 57.1948 69.7568 56.4567 69.8167 55.8756C69.8767 55.2944 71.3378 55.0914 72.1306 55.1744C72.928 55.2575 73.5226 55.7971 73.4627 56.3783C73.4074 56.9595 72.7114 57.3608 71.914 57.2778Z" fill="#FF7A7A"/>
<path d="M35.6201 63.9754C36.247 63.4818 37.7404 63.0575 38.0999 63.5141C38.4594 63.9708 37.556 65.1378 36.9245 65.6313C36.2977 66.1249 35.4957 66.1572 35.1315 65.7005C34.772 65.2439 34.9886 64.469 35.6201 63.9754Z" fill="#FF7A7A"/>
<path d="M33.9471 59.4505C34.703 59.1829 36.2472 59.2659 36.4407 59.8102C36.6343 60.3591 35.4037 61.1664 34.6477 61.4339C33.8918 61.7014 33.122 61.4708 32.9285 60.9219C32.7395 60.3776 33.1912 59.718 33.9471 59.4505Z" fill="#FF7A7A"/>
<path d="M33.8225 55.1144C34.6199 55.1467 36.0303 55.7925 36.0073 56.3737C35.9842 56.9549 34.5415 57.2501 33.7441 57.2224C32.9467 57.1901 32.3152 56.692 32.3336 56.1108C32.3567 55.5296 33.0204 55.0821 33.8225 55.1144Z" fill="#FF7A7A"/>
<path d="M38.524 66.7431C39.1509 66.2495 40.6443 65.8252 41.0038 66.2818C41.3634 66.7385 40.4599 67.9055 39.8285 68.399C39.197 68.8926 38.3996 68.9249 38.0354 68.4682C37.6759 68.0116 37.8926 67.2367 38.524 66.7431Z" fill="#FF7A7A"/>
<path d="M36.9245 36.2856C37.7875 36.2856 38.487 35.5545 38.487 34.6527C38.487 33.7508 37.7875 33.0198 36.9245 33.0198C36.0615 33.0198 35.3619 33.7508 35.3619 34.6527C35.3619 35.5545 36.0615 36.2856 36.9245 36.2856Z" fill="#FFD9D9"/>
<path d="M69.66 74.6816C70.3397 74.6816 70.8907 74.1302 70.8907 73.45C70.8907 72.7698 70.3397 72.2184 69.66 72.2184C68.9803 72.2184 68.4293 72.7698 68.4293 73.45C68.4293 74.1302 68.9803 74.6816 69.66 74.6816Z" fill="#FFD9D9"/>
</g>
<defs>
<clipPath id="clip0_4579_242">
<rect width="63" height="63" fill="white" transform="translate(23 22)"/>
</clipPath>
</defs>
</svg>
