<svg width="108" height="108" viewBox="0 0 108 108" fill="none" xmlns="http://www.w3.org/2000/svg">
<circle cx="54" cy="54" r="54" fill="white"/>
<g clip-path="url(#clip0_4579_274)">
<path d="M52.7855 53.4139H13V71.0055H52.7855V53.4139Z" fill="#FFB000"/>
<path d="M21.4742 58.5413C21.4742 57.3123 20.4811 56.3214 19.2612 56.3214C18.036 56.3214 17.0482 57.3177 17.0482 58.5413C17.0482 59.765 18.0414 60.7613 19.2612 60.7613C20.4811 60.7613 21.4742 59.765 21.4742 58.5413Z" fill="#FFD74F"/>
<path d="M29.1442 63.6473C29.1442 62.4182 28.151 61.4274 26.9311 61.4274C25.7059 61.4274 24.7181 62.4236 24.7181 63.6473C24.7181 64.8764 25.7113 65.8672 26.9311 65.8672C28.1564 65.8726 29.1442 64.8764 29.1442 63.6473Z" fill="#FFD74F"/>
<path d="M21.4742 67.2045C21.4742 65.9755 20.4811 64.9846 19.2612 64.9846C18.036 64.9846 17.0482 65.9809 17.0482 67.2045C17.0482 68.4282 18.0414 69.4245 19.2612 69.4245C20.4811 69.4245 21.4742 68.4282 21.4742 67.2045Z" fill="#FFD74F"/>
<path d="M33.7429 57.0957C33.7429 55.8666 32.7498 54.8757 31.5299 54.8757C30.3047 54.8757 29.3169 55.872 29.3169 57.0957C29.3169 58.3247 30.31 59.3156 31.5299 59.3156C32.7498 59.3156 33.7429 58.3247 33.7429 57.0957Z" fill="#FFD74F"/>
<path d="M48.5538 59.3156C48.5538 58.0866 47.5607 57.0957 46.3408 57.0957C45.1156 57.0957 44.1278 58.092 44.1278 59.3156C44.1278 60.5447 45.121 61.5356 46.3408 61.5356C47.5661 61.541 48.5538 60.5447 48.5538 59.3156Z" fill="#FFD74F"/>
<path d="M39.1891 65.2607C39.1891 64.0316 38.1959 63.0408 36.9761 63.0408C35.7508 63.0408 34.7631 64.037 34.7631 65.2607C34.7631 66.4844 35.7562 67.4806 36.9761 67.4806C38.1959 67.4806 39.1891 66.4844 39.1891 65.2607Z" fill="#FFD74F"/>
<path d="M42.7838 53.3976H38.3578C38.3578 54.6267 39.3509 55.6175 40.5708 55.6175C41.796 55.6175 42.7838 54.6213 42.7838 53.3976Z" fill="#FFD74F"/>
<path d="M47.987 68.0925C47.987 66.8634 46.9939 65.8726 45.774 65.8726C44.5488 65.8726 43.561 66.8688 43.561 68.0925C43.561 69.3216 44.5542 70.3124 45.774 70.3124C46.9993 70.3124 47.987 69.3162 47.987 68.0925Z" fill="#FFD74F"/>
<path d="M13 53.4139H52.7855L44.1278 47.3876L13 53.4139Z" fill="#FFD74F"/>
<path d="M94.9945 53.4139H55.209V71.0055H94.9945V53.4139Z" fill="#FFB000"/>
<path d="M66.4252 58.5413C66.4252 57.3123 65.432 56.3214 64.2122 56.3214C62.9869 56.3214 61.9991 57.3177 61.9991 58.5413C61.9991 59.765 62.9923 60.7613 64.2122 60.7613C65.432 60.7613 66.4252 59.765 66.4252 58.5413Z" fill="#FFD74F"/>
<path d="M70.6785 67.6701C70.6785 66.441 69.6853 65.4502 68.4655 65.4502C67.2402 65.4502 66.2524 66.4465 66.2524 67.6701C66.2524 68.8992 67.2456 69.8901 68.4655 69.8901C69.6853 69.8901 70.6785 68.8938 70.6785 67.6701Z" fill="#FFD74F"/>
<path d="M62.3717 64.9846C62.3717 63.7555 61.3785 62.7646 60.1587 62.7646C58.9388 62.7646 57.9457 63.7609 57.9457 64.9846C57.9457 66.2137 58.9388 67.2045 60.1587 67.2045C61.3785 67.2045 62.3717 66.2082 62.3717 64.9846Z" fill="#FFD74F"/>
<path d="M75.9519 57.0957C75.9519 55.8666 74.9587 54.8757 73.7389 54.8757C72.5136 54.8757 71.5259 55.872 71.5259 57.0957C71.5259 58.3247 72.519 59.3156 73.7389 59.3156C74.9587 59.3156 75.9519 58.3247 75.9519 57.0957Z" fill="#FFD74F"/>
<path d="M90.7682 59.3156C90.7682 58.0866 89.775 57.0957 88.5552 57.0957C87.3299 57.0957 86.3422 58.092 86.3422 59.3156C86.3422 60.5447 87.3353 61.5356 88.5552 61.5356C89.775 61.541 90.7682 60.5447 90.7682 59.3156Z" fill="#FFD74F"/>
<path d="M77.8573 67.2045C79.0795 67.2045 80.0703 66.2106 80.0703 64.9846C80.0703 63.7585 79.0795 62.7646 77.8573 62.7646C76.6351 62.7646 75.6443 63.7585 75.6443 64.9846C75.6443 66.2106 76.6351 67.2045 77.8573 67.2045Z" fill="#FFD74F"/>
<path d="M84.9982 53.3976H80.5721C80.5721 54.6267 81.5653 55.6175 82.7851 55.6175C84.005 55.6175 84.9982 54.6213 84.9982 53.3976Z" fill="#FFD74F"/>
<path d="M90.2015 68.0925C90.2015 66.8634 89.2084 65.8726 87.9885 65.8726C86.7633 65.8726 85.7755 66.8688 85.7755 68.0925C85.7755 69.3216 86.7687 70.3124 87.9885 70.3124C89.2084 70.3124 90.2015 69.3162 90.2015 68.0925Z" fill="#FFD74F"/>
<path d="M55.209 53.4139H94.9999L86.3368 47.3876L55.209 53.4139Z" fill="#FFD74F"/>
<path d="M74.7212 34.8638H34.9357V52.4554H74.7212V34.8638Z" fill="#FFB000"/>
<path d="M70.6785 39.9968C70.6785 38.7677 69.6853 37.7769 68.4655 37.7769C67.2402 37.7769 66.2524 38.7731 66.2524 39.9968C66.2524 41.2205 67.2456 42.2167 68.4655 42.2167C69.6853 42.2167 70.6785 41.2205 70.6785 39.9968Z" fill="#FFD74F"/>
<path d="M63.0032 45.1026C63.0032 43.8735 62.01 42.8827 60.7901 42.8827C59.5649 42.8827 58.5771 43.879 58.5771 45.1026C58.5771 46.3317 59.5703 47.3226 60.7901 47.3226C62.0154 47.3226 63.0032 46.3317 63.0032 45.1026Z" fill="#FFD74F"/>
<path d="M70.6785 48.66C70.6785 47.4309 69.6853 46.4401 68.4655 46.4401C67.2402 46.4401 66.2524 47.4363 66.2524 48.66C66.2524 49.8891 67.2456 50.8799 68.4655 50.8799C69.6853 50.8799 70.6785 49.8837 70.6785 48.66Z" fill="#FFD74F"/>
<path d="M58.4097 38.5511C58.4097 37.322 57.4165 36.3312 56.1966 36.3312C54.9714 36.3312 53.9836 37.3274 53.9836 38.5511C53.9836 39.7802 54.9768 40.771 56.1966 40.771C57.4165 40.771 58.4097 39.7802 58.4097 38.5511Z" fill="#FFD74F"/>
<path d="M43.5935 40.7711C43.5935 39.542 42.6003 38.5511 41.3805 38.5511C40.1552 38.5511 39.1675 39.5474 39.1675 40.7711C39.1675 42.0002 40.1606 42.991 41.3805 42.991C42.6057 42.9964 43.5935 42.0002 43.5935 40.7711Z" fill="#FFD74F"/>
<path d="M52.9635 46.716C52.9635 45.4869 51.9703 44.4961 50.7505 44.4961C49.5252 44.4961 48.5375 45.4924 48.5375 46.716C48.5375 47.9451 49.5306 48.936 50.7505 48.936C51.9703 48.936 52.9635 47.9397 52.9635 46.716Z" fill="#FFD74F"/>
<path d="M57.0442 50.2356C55.8189 50.2356 54.8312 51.2319 54.8312 52.4555H59.2572C59.2572 51.2319 58.264 50.2356 57.0442 50.2356Z" fill="#FFD74F"/>
<path d="M49.3635 34.853H44.9375C44.9375 36.0821 45.9307 37.073 47.1505 37.073C48.3758 37.073 49.3635 36.0767 49.3635 34.853Z" fill="#FFD74F"/>
<path d="M44.16 49.5478C44.16 48.3187 43.1669 47.3279 41.947 47.3279C40.7218 47.3279 39.734 48.3241 39.734 49.5478C39.734 50.7769 40.7272 51.7677 41.947 51.7677C43.1723 51.7677 44.16 50.7715 44.16 49.5478Z" fill="#FFD74F"/>
<path d="M34.9357 34.8639H74.7212L40.6733 29L34.9357 34.8639Z" fill="#FFD74F"/>
</g>
<defs>
<clipPath id="clip0_4579_274">
<rect width="82" height="42" fill="white" transform="translate(13 29)"/>
</clipPath>
</defs>
</svg>
