<svg width="108" height="108" viewBox="0 0 108 108" fill="none" xmlns="http://www.w3.org/2000/svg">
<circle cx="54" cy="54" r="54" fill="white"/>
<path d="M53.7623 78.3285C52.513 78.1143 51.2733 77.8002 50.1057 77.4053C48.448 76.8438 46.992 75.7969 45.3487 75.1449C41.6489 73.6698 39.6116 70.1198 39.0686 66.3034C38.7803 64.3001 39.4578 61.916 38.7803 60.0125C38.271 58.5707 36.9592 57.3715 36.2336 56.0201C34.2492 52.3274 33.5572 47.9399 34.4173 43.8333C35.3351 39.441 38.0067 35.4533 41.6729 32.8408C42.6339 32.1556 43.7967 31.518 44.6328 30.69C45.3151 30.0142 45.7716 29.1862 46.4731 28.5058C48.2221 26.8117 50.2066 25.208 52.5707 24.4752C56.0159 23.414 59.8647 24.4038 62.863 26.3977C66.0391 28.5105 68.5665 31.4656 69.8639 35.0203C71.3054 38.9747 74.5584 41.8394 74.9091 46.2554C75.1302 49.0344 74.2557 51.7849 73.1457 54.345C72.2087 56.5054 71.0027 58.5279 70.2531 60.7501C69.417 63.2294 69.0182 65.7181 68.5377 68.283C68.038 70.9574 67.2355 73.7078 65.3376 75.6636C63.233 77.8336 60.0424 78.6996 57.0105 78.6378C55.9438 78.6187 54.8482 78.5093 53.7623 78.3285Z" fill="#72CC72" stroke="#38B038" stroke-width="4.3847" stroke-miterlimit="10"/>
<path d="M57.7984 83.9532H50.8408L54.3196 32.9741L57.7984 83.9532Z" fill="white" stroke="#38B038" stroke-width="4.3847" stroke-miterlimit="10"/>
<path d="M44.9338 44.795L43.1401 45.8943L51.6482 59.5099L53.4418 58.4107L44.9338 44.795Z" fill="#38B038"/>
<path d="M66.0394 49.5682L55.5007 61.0265L57.0567 62.43L67.5953 50.9718L66.0394 49.5682Z" fill="#38B038"/>
<path d="M63.1149 41.3567L54.7444 48.6691L56.1398 50.2356L64.5102 42.9232L63.1149 41.3567Z" fill="#38B038"/>
<path d="M50.5963 38.1548L48.8069 39.2522L52.6169 45.3451L54.4062 44.2478L50.5963 38.1548Z" fill="#38B038"/>
<path d="M47.4985 60.529L45.6602 61.5436L50.6868 70.4762L52.5252 69.4616L47.4985 60.529Z" fill="#38B038"/>
</svg>
