<svg width="108" height="108" viewBox="0 0 108 108" fill="none" xmlns="http://www.w3.org/2000/svg">
<circle cx="54" cy="54" r="54" fill="white"/>
<g clip-path="url(#clip0_4579_313)">
<path d="M35.784 69.4366C34.0199 58.0873 35.1558 35.6216 39.8951 28.0917C45.6647 18.9271 53.2134 24.9856 52.0173 33.8382C50.5598 44.6079 51.0473 55.8036 54.1231 67.1528C57.4954 79.6167 38.1662 83.5848 35.784 69.4366Z" fill="#239130"/>
<path d="M47.0217 23.6382C47.0217 23.6382 41.1164 23.5193 40.9053 19.6652C40.9053 19.6652 43.3931 19.1747 44.6043 20.1556C45.8155 21.1365 46.3131 21.9093 46.3131 21.9093C46.3131 21.9093 45.1722 20.0169 47.8761 17C47.8761 17 50.1528 19.7345 48.3033 22.4691C48.3033 22.4691 51.0775 20.5073 53.3542 22.6771C53.3542 22.6771 51.7811 25.0996 47.0217 23.6382Z" fill="#FFC82C"/>
<path d="M36.1409 71.0714C36.1409 71.0714 39.8248 76.4314 42.2874 75.9906C42.2874 75.9906 39.8097 67.6582 41.4883 59.9401C41.4883 59.9401 41.5185 74.6827 45.7401 76.045C45.7401 76.045 47.8359 68.9858 47.1272 64.131C47.1272 64.131 49.0572 72.7161 48.7003 76.0104C48.7003 76.0104 50.2282 76.6445 53.892 73.1817C53.892 73.1817 52.2435 78.1158 45.6296 78.4724C45.6346 78.4724 38.4025 78.8687 36.1409 71.0714Z" fill="#64CC5C"/>
<path d="M40.7092 48.6948C40.7092 49.5865 40.3071 50.3097 39.8146 50.3097C39.322 50.3097 38.92 49.5865 38.92 48.6948C38.92 47.8031 39.322 47.0798 39.8146 47.0798C40.3071 47.0798 40.7092 47.8031 40.7092 48.6948Z" fill="#64CC5C"/>
<path d="M46.0818 53.3266C46.0818 54.2183 45.6797 54.9416 45.1872 54.9416C44.6947 54.9416 44.2926 54.2183 44.2926 53.3266C44.2926 52.4349 44.6947 51.7117 45.1872 51.7117C45.6797 51.7117 46.0818 52.4349 46.0818 53.3266Z" fill="#64CC5C"/>
<path d="M39.704 60.0986C39.704 60.9903 39.302 61.7136 38.8094 61.7136C38.3169 61.7136 37.9149 60.9903 37.9149 60.0986C37.9149 59.2069 38.3169 58.4836 38.8094 58.4836C39.302 58.4836 39.704 59.2069 39.704 60.0986Z" fill="#64CC5C"/>
<path d="M45.6495 65.2852C45.6495 66.1769 45.2474 66.9002 44.7549 66.9002C44.2624 66.9002 43.8603 66.1769 43.8603 65.2852C43.8603 64.3936 44.2624 63.6703 44.7549 63.6703C45.2524 63.6703 45.6495 64.3936 45.6495 65.2852Z" fill="#64CC5C"/>
<path d="M51.3339 60.8267C51.3339 61.7184 50.9318 62.4417 50.4393 62.4417C49.9467 62.4417 49.5447 61.7184 49.5447 60.8267C49.5447 59.9351 49.9467 59.2118 50.4393 59.2118C50.9368 59.2118 51.3339 59.9351 51.3339 60.8267Z" fill="#64CC5C"/>
<path d="M48.9214 45.9454C48.9214 46.8371 48.5193 47.5604 48.0268 47.5604C47.5343 47.5604 47.1322 46.8371 47.1322 45.9454C47.1322 45.0537 47.5343 44.3304 48.0268 44.3304C48.5193 44.3304 48.9214 45.0488 48.9214 45.9454Z" fill="#64CC5C"/>
<path d="M41.7998 39.2776C41.7998 40.1693 41.3977 40.8925 40.9052 40.8925C40.4127 40.8925 40.0106 40.1693 40.0106 39.2776C40.0106 38.3859 40.4127 37.6626 40.9052 37.6626C41.3977 37.6626 41.7998 38.3859 41.7998 39.2776Z" fill="#64CC5C"/>
<path d="M48.7355 33.541C48.7355 34.4327 48.3334 35.1559 47.8409 35.1559C47.3484 35.1559 46.9463 34.4327 46.9463 33.541C46.9463 32.6493 47.3484 31.926 47.8409 31.926C48.3384 31.926 48.7355 32.6493 48.7355 33.541Z" fill="#64CC5C"/>
<path d="M44.2877 27.8093C44.2877 28.701 43.8857 29.4242 43.3931 29.4242C42.9006 29.4242 42.4985 28.701 42.4985 27.8093C42.4985 26.9176 42.9006 26.1943 43.3931 26.1943C43.8907 26.1943 44.2877 26.9176 44.2877 27.8093Z" fill="#64CC5C"/>
<path d="M53.1279 70.8187C53.1279 71.7104 52.7259 72.4337 52.2333 72.4337C51.7408 72.4337 51.3387 71.7104 51.3387 70.8187C51.3387 69.927 51.7408 69.2037 52.2333 69.2037C52.7259 69.2087 53.1279 69.927 53.1279 70.8187Z" fill="#64CC5C"/>
<path d="M72.3417 82.4255C73.8193 72.9141 72.8694 54.0795 68.899 47.7683C64.0642 40.0899 57.7368 45.1626 58.7419 52.5835C59.9632 61.6094 59.5561 70.997 56.9779 80.5084C54.1483 90.956 70.3465 94.285 72.3417 82.4255Z" fill="#48B53C"/>
<path d="M62.9233 44.0331C62.9233 44.0331 67.8737 43.934 68.0496 40.7041C68.0496 40.7041 65.9639 40.2929 64.9487 41.1153C63.9335 41.9376 63.5164 42.5866 63.5164 42.5866C63.5164 42.5866 64.4713 41.0013 62.2046 38.4749C62.2046 38.4749 60.2948 40.7685 61.8478 43.0572C61.8478 43.0572 59.5209 41.4125 57.6161 43.2355C57.6161 43.2306 58.9379 45.2567 62.9233 44.0331Z" fill="#FFC82C"/>
<path d="M72.0451 83.7928C72.0451 83.7928 68.9542 88.2859 66.8936 87.9144C66.8936 87.9144 68.9693 80.9295 67.5621 74.4597C67.5621 74.4597 67.5369 86.8196 63.9988 87.959C63.9988 87.959 62.2397 82.0441 62.8378 77.972C62.8378 77.972 61.2195 85.1699 61.516 87.9292C61.516 87.9292 60.2345 88.4643 57.1637 85.5564C57.1637 85.5564 58.5458 89.6928 64.0892 89.99C64.0892 89.995 70.1503 90.3319 72.0451 83.7928Z" fill="#64CC5C"/>
<path d="M68.2153 65.0376C68.2153 65.7856 68.552 66.39 68.9641 66.39C69.3762 66.39 69.713 65.7856 69.713 65.0376C69.713 64.2896 69.3762 63.6852 68.9641 63.6852C68.552 63.6852 68.2153 64.2896 68.2153 65.0376Z" fill="#64CC5C"/>
<path d="M63.7122 68.9214C63.7122 69.6694 64.0489 70.2738 64.461 70.2738C64.8731 70.2738 65.2098 69.6694 65.2098 68.9214C65.2098 68.1734 64.8731 67.569 64.461 67.569C64.0489 67.564 63.7122 68.1734 63.7122 68.9214Z" fill="#64CC5C"/>
<path d="M69.0598 74.5985C69.0598 75.3465 69.3965 75.9509 69.8087 75.9509C70.2208 75.9509 70.5575 75.3465 70.5575 74.5985C70.5575 73.8505 70.2208 73.2461 69.8087 73.2461C69.3965 73.2461 69.0598 73.8505 69.0598 74.5985Z" fill="#64CC5C"/>
<path d="M64.0742 78.943C64.0742 79.691 64.4109 80.2954 64.823 80.2954C65.2351 80.2954 65.5718 79.691 65.5718 78.943C65.5718 78.1949 65.2351 77.5906 64.823 77.5906C64.4109 77.5906 64.0742 78.1949 64.0742 78.943Z" fill="#64CC5C"/>
<path d="M59.3097 75.2078C59.3097 75.9558 59.6464 76.5602 60.0585 76.5602C60.4757 76.5602 60.8074 75.9558 60.8074 75.2078C60.8074 74.4597 60.4707 73.8554 60.0585 73.8554C59.6414 73.8504 59.3097 74.4597 59.3097 75.2078Z" fill="#64CC5C"/>
<path d="M61.3352 62.729C61.3352 63.477 61.6719 64.0814 62.084 64.0814C62.5012 64.0814 62.8329 63.477 62.8329 62.729C62.8329 61.981 62.4962 61.3766 62.084 61.3766C61.6719 61.3766 61.3352 61.9859 61.3352 62.729Z" fill="#64CC5C"/>
<path d="M67.3008 57.146C67.3008 57.894 67.6375 58.4984 68.0496 58.4984C68.4617 58.4984 68.7985 57.894 68.7985 57.146C68.7985 56.398 68.4617 55.7936 68.0496 55.7936C67.6375 55.7936 67.3008 56.398 67.3008 57.146Z" fill="#64CC5C"/>
<path d="M61.4858 52.3358C61.4858 53.0838 61.8226 53.6882 62.2347 53.6882C62.6468 53.6882 62.9835 53.0838 62.9835 52.3358C62.9835 51.5878 62.6468 50.9834 62.2347 50.9834C61.8226 50.9834 61.4858 51.5878 61.4858 52.3358Z" fill="#64CC5C"/>
<path d="M65.215 47.5306C65.215 48.2787 65.5518 48.883 65.9639 48.883C66.376 48.883 66.7127 48.2787 66.7127 47.5306C66.7127 46.7826 66.376 46.1782 65.9639 46.1782C65.5518 46.1782 65.215 46.7826 65.215 47.5306Z" fill="#64CC5C"/>
<path d="M57.8069 83.5848C57.8069 84.3329 58.1436 84.9372 58.5557 84.9372C58.9678 84.9372 59.3046 84.3329 59.3046 83.5848C59.3046 82.8368 58.9678 82.2324 58.5557 82.2324C58.1436 82.2324 57.8069 82.8368 57.8069 83.5848Z" fill="#64CC5C"/>
</g>
<defs>
<clipPath id="clip0_4579_313">
<rect width="38" height="73" fill="white" transform="translate(35 17)"/>
</clipPath>
</defs>
</svg>
