<svg width="108" height="108" viewBox="0 0 108 108" fill="none" xmlns="http://www.w3.org/2000/svg">
<circle cx="54" cy="54" r="54" fill="white"/>
<g clip-path="url(#clip0_4579_405)">
<path d="M64.7531 53.3811C64.7593 60.8051 65.1052 81.4418 53.0733 81.0323C41.0414 80.6227 42.8171 60.0593 43.3391 52.6537C43.9413 44.1141 47.0048 24.0336 55.0436 24.3087C63.1194 24.5838 64.7438 44.8232 64.7531 53.3811Z" fill="#FFBB54" stroke="#FF8A05" stroke-width="2" stroke-miterlimit="10"/>
<path d="M65.2224 66.3739C64.2125 75.0326 61.3096 83.9695 52.9805 83.6853C44.2932 83.3888 42.187 73.4891 41.9245 64.4606C41.7886 59.8149 43.3822 47.2684 39.5311 40.3029C48.3636 40.6054 65.8092 61.3553 65.2224 66.3739Z" fill="white" stroke="#38B038" stroke-width="2" stroke-miterlimit="10"/>
<path d="M42.0078 65.5852C42.4124 74.2898 44.6915 83.404 53.0205 83.6882C61.7078 83.9847 64.4934 74.247 65.3829 65.2613C65.8399 60.6369 65.1204 48.011 69.447 41.3236C60.6146 41.0241 41.7731 60.5361 42.0078 65.5852Z" fill="#72CC72" stroke="#38B038" stroke-width="2" stroke-miterlimit="10"/>
<path d="M54.0336 44.6856L52.5358 44.6337C52.5451 44.4075 52.4617 44.1935 52.3073 44.0285C52.1529 43.8634 51.9398 43.7687 51.7113 43.7595C51.4765 43.7473 51.2665 43.8329 51.0998 43.9857C50.933 44.1385 50.8373 44.3494 50.828 44.5756L49.3302 44.5236C49.3518 43.9032 49.6174 43.3255 50.0745 42.9037C50.5346 42.4789 51.1276 42.2588 51.7607 42.2772C52.3876 42.2986 52.9713 42.5614 53.3974 43.0138C53.8329 43.4722 54.0552 44.0652 54.0336 44.6856Z" fill="#FF8A05"/>
<path d="M59.3732 44.866L57.8754 44.8141C57.8847 44.5879 57.8013 44.3739 57.6469 44.2089C57.4925 44.0439 57.2794 43.9491 57.0509 43.9399C56.8161 43.9277 56.6061 44.0133 56.4394 44.1661C56.2726 44.3189 56.1769 44.5298 56.1676 44.756L54.6698 44.704C54.6914 44.0836 54.957 43.5059 55.4141 43.0841C55.8742 42.6593 56.4672 42.4362 57.1003 42.4576C57.7272 42.479 58.3109 42.7418 58.737 43.1942C59.1694 43.6526 59.3948 44.2456 59.3732 44.866Z" fill="#FF8A05"/>
<path d="M51.4734 41.5101L49.9756 41.4581C49.9911 40.9936 49.6236 40.5993 49.1511 40.584C48.6755 40.5687 48.2833 40.9324 48.2678 41.4001L46.77 41.3481C46.8133 40.0675 47.9034 39.068 49.2005 39.1017C50.4976 39.1506 51.5167 40.2295 51.4734 41.5101Z" fill="#FF8A05"/>
<path d="M62.1496 41.8737L60.6518 41.8218C60.6611 41.5956 60.5777 41.3816 60.4233 41.2166C60.2688 41.0516 60.0558 40.9568 59.8272 40.9476C59.5894 40.9354 59.3825 41.021 59.2157 41.1738C59.049 41.3266 58.9532 41.5375 58.944 41.7637L57.4462 41.7117C57.4678 41.0913 57.7334 40.5136 58.1904 40.0918C58.6506 39.667 59.2497 39.4469 59.8766 39.4683C60.5035 39.4897 61.0872 39.7526 61.5134 40.2049C61.9489 40.6603 62.1712 41.2533 62.1496 41.8737Z" fill="#FF8A05"/>
<path d="M54.2343 38.961L52.7365 38.9091C52.7519 38.4445 52.3844 38.0502 51.9119 38.0349C51.4456 38.0196 51.0441 38.3834 51.0287 38.851L49.5309 38.799C49.5772 37.5184 50.6581 36.519 51.9613 36.5526C53.2584 36.5984 54.2775 37.6773 54.2343 38.961Z" fill="#FF8A05"/>
<path d="M59.5739 39.1414L58.0761 39.0895C58.0854 38.8633 58.002 38.6494 57.8476 38.4843C57.6932 38.3193 57.4801 38.2245 57.2515 38.2154C57.0107 38.2062 56.8068 38.2887 56.6401 38.4415C56.4733 38.5943 56.3776 38.8052 56.3683 39.0314L54.8705 38.9795C54.8921 38.359 55.1577 37.7813 55.6148 37.3596C56.0749 36.9347 56.6709 36.7177 57.3009 36.7361C57.9279 36.7575 58.5115 37.0203 58.9377 37.4727C59.3701 37.9281 59.5955 38.521 59.5739 39.1414Z" fill="#FF8A05"/>
<path d="M51.6558 36.2255L50.158 36.1736C50.1673 35.9474 50.0839 35.7334 49.9295 35.5684C49.7751 35.4034 49.562 35.3086 49.3334 35.2994C48.8671 35.278 48.4656 35.6509 48.4502 36.1155L46.9524 36.0635C46.9956 34.7829 48.0765 33.7865 49.3829 33.8171C50.0098 33.8385 50.5935 34.1013 51.0196 34.5537C51.452 35.0121 51.6774 35.6051 51.6558 36.2255Z" fill="#FF8A05"/>
<path d="M62.3349 36.5893L60.8371 36.5373C60.8464 36.3112 60.763 36.0972 60.6086 35.9322C60.4541 35.7671 60.2411 35.6724 60.0125 35.6632C59.7747 35.651 59.5678 35.7366 59.401 35.8894C59.2343 36.0422 59.1385 36.2531 59.1293 36.4793L57.6315 36.4273C57.6531 35.8069 57.9187 35.2292 58.3757 34.8074C58.8359 34.3826 59.435 34.1625 60.0619 34.1839C60.6889 34.2053 61.2725 34.4682 61.6987 34.9205C62.1311 35.3759 62.3565 35.9689 62.3349 36.5893Z" fill="#FF8A05"/>
<path d="M54.4164 33.6765L52.9186 33.6246C52.9279 33.3984 52.8445 33.1845 52.6901 33.0194C52.5357 32.8544 52.3226 32.7596 52.0941 32.7504C51.8563 32.7413 51.6494 32.8238 51.4826 32.9766C51.3158 33.1294 51.2201 33.3403 51.2108 33.5665L49.713 33.5145C49.7346 32.8941 50.0002 32.3164 50.4573 31.8947C50.9174 31.4698 51.532 31.2559 52.1435 31.2712C53.4436 31.3139 54.4628 32.3928 54.4164 33.6765Z" fill="#FF8A05"/>
<path d="M59.7562 33.8569L58.2584 33.805C58.2676 33.5788 58.1842 33.3649 58.0298 33.1998C57.8754 33.0348 57.6623 32.94 57.4338 32.9308C57.1929 32.9217 56.9891 33.0042 56.8223 33.157C56.6555 33.3098 56.5598 33.5207 56.5505 33.7469L55.0527 33.6949C55.0744 33.0745 55.3399 32.4968 55.797 32.0751C56.2572 31.6502 56.8717 31.4393 57.4832 31.4516C58.1101 31.4729 58.6938 31.7358 59.12 32.1881C59.5523 32.6435 59.7778 33.2365 59.7562 33.8569Z" fill="#FF8A05"/>
<path d="M51.8379 30.9441L50.3401 30.8921C50.3494 30.6659 50.266 30.452 50.1116 30.287C49.9572 30.1219 49.7441 30.0272 49.5155 30.018C49.3457 30.0149 49.1789 30.0577 49.0338 30.1464L48.2432 28.8902C48.6416 28.6426 49.0924 28.5234 49.5711 28.5356C50.8651 28.5815 51.8842 29.6604 51.8379 30.9441Z" fill="#FF8A05"/>
<path d="M59.3146 31.1979L57.8168 31.1459C57.8384 30.5255 58.104 29.9478 58.561 29.5261C59.0212 29.1012 59.6203 28.8812 60.2472 28.9025C60.5653 28.9148 60.8711 28.9851 61.1552 29.1165L60.5252 30.4613C60.4233 30.4124 60.3121 30.388 60.1947 30.3849C59.9724 30.3818 59.75 30.4582 59.5833 30.6111C59.4165 30.7639 59.3208 30.9717 59.3146 31.1979Z" fill="#FF8A05"/>
<path d="M54.602 28.392L53.1042 28.3401C53.1196 27.8755 52.749 27.4812 52.2796 27.4659C51.8071 27.4384 51.4149 27.8174 51.3964 28.282L49.8986 28.23C49.9449 26.9494 51.0227 25.9561 52.329 25.9836C53.6261 26.0294 54.6452 27.1083 54.602 28.392Z" fill="#FF8A05"/>
<path d="M59.9383 28.5723L58.4405 28.5204C58.4559 28.0558 58.0853 27.6615 57.6159 27.6463C57.3936 27.6432 57.1712 27.7196 57.0044 27.8724C56.8377 28.0253 56.7419 28.2361 56.7327 28.4623L55.2349 28.4104C55.2565 27.7899 55.5221 27.2123 55.9791 26.7905C56.4393 26.3656 57.0322 26.1486 57.6653 26.167C58.9655 26.2128 59.9846 27.2917 59.9383 28.5723Z" fill="#FF8A05"/>
</g>
<defs>
<clipPath id="clip0_4579_405">
<rect width="31" height="60" fill="white" transform="translate(39 24)"/>
</clipPath>
</defs>
</svg>
